<svg width="178" height="31" viewBox="0 0 178 31" fill="none" xmlns="http://www.w3.org/2000/svg">
<g clip-path="url(#clip0_2162_4601)">
<path d="M41.0848 22.884C42.8557 22.884 44.081 22.6196 44.7596 22.0897C45.4381 21.5598 45.7768 20.7846 45.7768 19.7606C45.7768 18.9204 45.5179 18.2583 44.9988 17.7743C44.4798 17.2903 43.6845 16.9755 42.6106 16.8287L38.2573 16.226C35.016 15.788 33.3953 14.1535 33.3953 11.3224C33.3953 9.71592 34.0172 8.41413 35.2611 7.41817C36.5049 6.42334 38.3324 5.9248 40.7449 5.9248C43.1574 5.9248 45.141 6.45919 46.4126 7.52796C47.6841 8.59674 48.3869 10.0072 48.5187 11.7605H45.6924C45.541 10.6099 45.0613 9.7148 44.2509 9.07511C43.4406 8.43653 42.2627 8.11612 40.7172 8.11612C39.1717 8.11612 38.1486 8.39508 37.4238 8.95187C36.6979 9.50867 36.3349 10.2716 36.3349 11.2395C36.3349 11.9341 36.5419 12.5044 36.9568 12.9514C37.3707 13.3995 38.003 13.6874 38.8515 13.814L43.4591 14.4716C45.1734 14.7091 46.4785 15.2256 47.3743 16.0199C48.269 16.8142 48.7175 17.9423 48.7175 19.4032C48.7175 23.1842 46.1733 25.0742 41.0848 25.0742C38.2203 25.0742 36.128 24.458 34.8091 23.2246C33.4901 21.9911 32.8301 20.4261 32.8301 18.526H35.6564C35.75 21.4298 37.5603 22.8818 41.0836 22.8818L41.0848 22.884Z" fill="black"/>
<path d="M56.238 8.69317H49.708V6.41895H65.6521V8.69317H59.1499V24.6385H56.238V8.69317Z" fill="black"/>
<path d="M79.4773 24.6375L77.8093 20.3086H68.7073L67.0392 24.6375H64.0996L71.0816 6.41797H75.4627L82.4446 24.6375H79.4761H79.4773ZM76.933 18.0344L73.2583 8.41772L69.5835 18.0344H76.933Z" fill="black"/>
<path d="M84.7032 6.41907H94.2861C96.1518 6.41907 97.5274 6.83022 98.4129 7.65252C99.2984 8.47483 99.7411 9.55256 99.7411 10.8857C99.7411 12.1281 99.3827 13.1185 98.6672 13.8579C97.9505 14.5973 97.0743 15.0499 96.0386 15.2146C97.2072 15.3793 98.1586 15.8408 98.8938 16.5982C99.629 17.3566 99.9966 18.3929 99.9966 19.7081C99.9966 21.2239 99.4926 22.4249 98.4846 23.311C97.4766 24.1972 96.0108 24.6397 94.0885 24.6397H84.7032V6.41907ZM93.24 14.1727C94.4272 14.1727 95.2987 13.9442 95.8548 13.4882C96.4108 13.0322 96.6882 12.3287 96.6882 11.3787C96.6882 10.4286 96.4616 9.76654 96.0097 9.33747C95.5577 8.90839 94.7566 8.69329 93.6064 8.69329H87.6139V14.1727H93.24ZM93.7486 22.3644C94.841 22.3644 95.6467 22.0866 96.1657 21.5286C96.6836 20.9718 96.9437 20.2549 96.9437 19.3777C96.9437 17.295 95.7091 16.2542 93.24 16.2542H87.6139V22.3633H93.7486V22.3644Z" fill="black"/>
<path d="M102.824 22.3643H106.669V8.69317H102.824V6.41895H113.425V8.69317H109.581V22.3643H113.425V24.6385H102.824V22.3643Z" fill="black"/>
<path d="M116.96 6.41907H119.872V22.3644H129.398V24.6386H116.96V6.41907Z" fill="black"/>
<path d="M131.377 22.3644H135.222V8.69329H131.377V6.41907H141.978V8.69329H138.134V22.3644H141.978V24.6386H131.377V22.3644Z" fill="black"/>
<path d="M150.485 8.69329H143.955V6.41907H159.899V8.69329H153.397V24.6386H150.485V8.69329Z" fill="black"/>
<path d="M164.093 6.41895L167.908 13.4601L169.379 16.1454C169.887 15.3231 170.396 14.4291 170.905 13.4601L174.749 6.41895H178L170.848 18.6112V24.6385H167.936V18.6112L160.784 6.41895H164.091H164.093Z" fill="black"/>
<path d="M0 24.1065L12.4161 17.1897L24.8323 24.1244L12.4161 30.9997L0 24.1065Z" fill="#0A0A0A"/>
<path d="M0 6.91602L12.4161 13.7925V27.4893L0 20.7428V6.91602Z" fill="#3E7CB1"/>
<path d="M24.8323 6.93469L12.4161 13.81V27.508L24.8323 20.7615V6.93469Z" fill="#30C5FF"/>
<path d="M0 6.91677L12.4161 0L24.8323 6.9347L12.4161 13.81L0 6.91677Z" fill="#41EEF9"/>
</g>
<defs>
<clipPath id="clip0_2162_4601">
<rect width="178" height="31" fill="white"/>
</clipPath>
</defs>
</svg>
